HIERARCHY
ROOT Hips
{
	OFFSET -0.001795 -0.223333 0.028219
	CHANNELS 6 Xposition Yposition Zposition Zrotation Yrotation Xrotation 
	JOINT LeftUpLeg
	{
		OFFSET 0.069520 -0.091406 -0.006815
		CHANNELS 3 Zrotation Yrotation Xrotation
		JOINT LeftLeg
		{
			OFFSET 0.034277 -0.375199 -0.004496
			CHANNELS 3 Zrotation Yrotation Xrotation
			JOINT LeftFoot
			{
				OFFSET -0.013596 -0.397961 -0.043693
				CHANNELS 3 Zrotation Yrotation Xrotation
				JOINT LeftToe
				{
					OFFSET 0.026358 -0.055791 0.119288
					CHANNELS 3 Zrotation Yrotation Xrotation
					End Site
					{
						OFFSET 0.000000 0.000000 0.000000
					}
				}
			}
		}
	}
	JOINT RightUpLeg
	{
		OFFSET -0.067670 -0.090522 -0.004320
		CHANNELS 3 Zrotation Yrotation Xrotation
		JOINT RightLeg
		{
			OFFSET -0.038290 -0.382569 -0.008850
			CHANNELS 3 Zrotation Yrotation Xrotation
			JOINT RightFoot
			{
				OFFSET 0.015774 -0.398415 -0.042312
				CHANNELS 3 Zrotation Yrotation Xrotation
				JOINT RightToe
				{
					OFFSET -0.025372 -0.048144 0.123348
					CHANNELS 3 Zrotation Yrotation Xrotation
					End Site
					{
						OFFSET 0.000000 0.000000 0.000000
					}
				}
			}
		}
	}
	JOINT Spine
	{
		OFFSET -0.002533 0.108963 -0.026696
		CHANNELS 3 Zrotation Yrotation Xrotation
		JOINT Spine1
		{
			OFFSET 0.005487 0.135180 0.001092
			CHANNELS 3 Zrotation Yrotation Xrotation
			JOINT Spine2
			{
				OFFSET 0.001457 0.052922 0.025425
				CHANNELS 3 Zrotation Yrotation Xrotation
				JOINT Neck
				{
					OFFSET -0.002778 0.213870 -0.042857
					CHANNELS 3 Zrotation Yrotation Xrotation
					JOINT Head
					{
						OFFSET 0.005152 0.064970 0.051349
						CHANNELS 3 Zrotation Yrotation Xrotation
						End Site
						{
							OFFSET 0.000000 0.000000 0.000000
						}
					}
				}
				JOINT LeftShoulder
				{
					OFFSET 0.078845 0.121749 -0.034090
					CHANNELS 3 Zrotation Yrotation Xrotation
					JOINT LeftArm
					{
						OFFSET 0.090977 0.030469 -0.008868
						CHANNELS 3 Zrotation Yrotation Xrotation
						JOINT LeftForeArm
						{
							OFFSET 0.259612 -0.012772 -0.027456
							CHANNELS 3 Zrotation Yrotation Xrotation
							JOINT LeftHand
							{
								OFFSET 0.249234 0.008986 -0.001171
								CHANNELS 3 Zrotation Yrotation Xrotation
								End Site
								{
									OFFSET 0.000000 0.000000 0.000000
								}
							}
						}
					}
				}
				JOINT RightShoulder
				{
					OFFSET -0.081759 0.118833 -0.038615
					CHANNELS 3 Zrotation Yrotation Xrotation
					JOINT RightArm
					{
						OFFSET -0.096012 0.032551 -0.009143
						CHANNELS 3 Zrotation Yrotation Xrotation
						JOINT RightForeArm
						{
							OFFSET -0.253742 -0.013329 -0.021401
							CHANNELS 3 Zrotation Yrotation Xrotation
							JOINT RightHand
							{
								OFFSET -0.255298 0.007772 -0.005559
								CHANNELS 3 Zrotation Yrotation Xrotation
								End Site
								{
									OFFSET 0.000000 0.000000 0.000000
								}
							}
						}
					}
				}
			}
		}
	}
}
MOTION
Frames: 10
Frame Time: 0.050000
0.000000 0.942411 0.000000 0.835098 -4.062852 10.050368 5.583674 -0.457322 -7.063810 -0.893572 0.265288 -6.009674 2.226844 7.681687 11.722562 0.000000 0.000000 0.000000 -4.839549 0.692065 -7.190983 -1.634880 -0.093901 -4.673388 -2.429224 -9.911502 11.396813 0.000000 0.000000 0.000000 4.798828 0.391717 -6.810418 -3.626990 1.553684 -6.875627 -3.650756 5.317234 7.552374 3.186543 -0.879380 -12.221418 0.000000 0.000000 0.000000 -13.697469 3.154868 -3.336168 -56.644127 -7.266430 -3.575183 -4.866814 -14.120769 1.061491 0.000000 0.000000 0.000000 11.465759 -9.258800 -4.825804 67.066570 4.285205 -3.852922 3.227675 18.198220 1.206663 0.000000 0.000000 0.000000 
0.000080 0.941774 0.000553 0.882872 -4.326764 11.012012 5.646821 -0.457502 -6.842590 -1.077889 0.318257 -7.403603 2.264774 7.792032 12.124843 0.000000 0.000000 0.000000 -4.857660 0.775967 -8.332926 -2.131927 -0.081663 -4.896730 -2.021454 -9.470499 12.448156 0.000000 0.000000 0.000000 6.026333 0.490329 -7.700382 -4.463925 1.867390 -7.270581 -4.740894 5.751607 7.193687 1.903044 0.124323 -13.291948 0.000000 0.000000 0.000000 -14.365995 4.099511 -3.984937 -55.384373 -7.331788 -3.407272 -4.672166 -13.837307 1.003962 0.000000 0.000000 0.000000 11.345351 -10.921550 -5.548920 68.346486 3.166517 -4.427132 3.493466 18.545892 1.286310 0.000000 0.000000 0.000000 
0.000077 0.941820 0.000806 1.417738 -4.195972 10.832080 4.985780 -0.501384 -7.375394 -0.959214 0.251137 -5.383746 1.773486 6.658701 10.598066 0.000000 0.000000 0.000000 -5.463235 0.773265 -8.477782 -1.941800 -0.070281 -4.518599 -2.835978 -10.816451 11.910136 0.000000 0.000000 0.000000 5.857620 0.471972 -7.550341 -4.717391 1.956299 -7.698538 -5.153039 4.968031 7.246210 1.673817 0.109135 -12.302810 0.000000 0.000000 0.000000 -13.802607 3.540953 -3.502930 -55.517192 -7.147795 -3.524473 -4.170833 -12.998329 0.902232 0.000000 0.000000 0.000000 12.145162 -10.112783 -5.363088 67.253427 2.638966 -4.827678 4.056322 18.760641 1.363451 0.000000 0.000000 0.000000 
0.000021 0.942083 0.000950 1.742041 -3.878434 11.344136 5.200571 -0.516860 -7.668244 -1.552469 0.301820 -5.905134 1.029525 5.626268 11.376063 0.000000 0.000000 0.000000 -5.720876 0.798739 -8.945803 -2.067990 -0.080473 -4.832971 -3.288332 -11.847610 13.008303 0.000000 0.000000 0.000000 5.825964 0.497425 -7.959181 -4.956549 2.072048 -7.091571 -5.510375 4.257998 6.084616 0.528781 0.732526 -11.342918 0.000000 0.000000 0.000000 -14.023719 4.346936 -3.882034 -55.646113 -7.855739 -3.069104 -2.921686 -12.311569 0.725234 0.000000 0.000000 0.000000 11.228201 -10.675792 -5.542511 67.880837 1.988596 -5.122470 4.715456 19.534342 1.502733 0.000000 0.000000 0.000000 
-0.000091 0.942601 0.001005 2.039679 -3.571013 11.049075 4.681361 -0.531884 -7.572426 -1.359351 0.277946 -5.476783 0.730625 5.095398 11.113881 0.000000 0.000000 0.000000 -5.865231 0.784048 -8.880727 -2.414814 -0.043578 -4.535393 -3.546135 -12.212154 12.702420 0.000000 0.000000 0.000000 5.639350 0.466468 -7.675793 -4.730197 1.989874 -7.041794 -5.997865 3.968382 6.059241 0.075010 1.089127 -12.063292 0.000000 0.000000 0.000000 -13.911752 3.949378 -3.672717 -55.647034 -8.396034 -2.818780 -3.033862 -11.773464 0.704812 0.000000 0.000000 0.000000 11.147395 -10.763341 -5.571380 67.793289 2.003962 -5.102997 4.723678 19.515725 1.501741 0.000000 0.000000 0.000000 
-0.000251 0.943017 0.001069 2.253922 -3.287338 11.177472 4.639467 -0.534048 -7.483929 -1.609409 0.296125 -5.615074 0.594863 4.916626 11.174721 0.000000 0.000000 0.000000 -5.994429 0.772736 -8.748365 -2.680564 -0.053479 -4.956545 -3.804404 -12.749589 13.285812 0.000000 0.000000 0.000000 5.519281 0.464080 -7.748085 -4.785925 2.006936 -7.365244 -6.239467 3.803864 6.137531 -0.285609 1.321135 -12.015600 0.000000 0.000000 0.000000 -14.380655 4.101315 -3.832762 -55.305451 -8.725639 -2.644325 -2.540045 -11.698795 0.651987 0.000000 0.000000 0.000000 10.977738 -10.840066 -5.575955 68.099941 1.627127 -5.337371 4.702559 19.903238 1.534302 0.000000 0.000000 0.000000 
-0.000452 0.943256 0.001040 2.387773 -3.100734 11.010550 4.417235 -0.534851 -7.346379 -1.544763 0.287851 -5.462864 0.618452 5.062677 11.472165 0.000000 0.000000 0.000000 -6.009404 0.759573 -8.601254 -2.815634 -0.037151 -4.824070 -3.857059 -12.799640 13.175270 0.000000 0.000000 0.000000 5.473587 0.453309 -7.637175 -4.721183 1.987357 -7.286179 -6.505188 3.475777 6.105096 -0.296772 1.358310 -12.607078 0.000000 0.000000 0.000000 -14.481936 3.945541 -3.748701 -55.321539 -8.740247 -2.631762 -2.514781 -11.584845 0.645871 0.000000 0.000000 0.000000 11.033230 -10.867055 -5.616177 68.201300 1.451264 -5.469947 4.636009 20.538606 1.575009 0.000000 0.000000 0.000000 
-0.000672 0.943493 0.000970 2.504294 -2.707113 11.097443 4.262827 -0.551173 -7.481244 -1.481444 0.275977 -5.194096 0.452174 4.732377 11.118089 0.000000 0.000000 0.000000 -6.073602 0.754439 -8.609972 -2.907893 -0.025133 -4.734702 -4.061325 -13.094862 13.057138 0.000000 0.000000 0.000000 5.435637 0.452721 -7.706718 -4.668458 1.971809 -7.293258 -6.829225 3.320945 5.965789 -0.628641 1.568918 -12.430908 0.000000 0.000000 0.000000 -14.455182 3.679942 -3.644505 -55.175147 -8.835976 -2.564458 -2.447658 -11.687764 0.641877 0.000000 0.000000 0.000000 10.944562 -11.075662 -5.685061 68.492972 1.076190 -5.670310 4.526577 21.136997 1.615369 0.000000 0.000000 0.000000 
-0.000937 0.943812 0.000815 2.660506 -2.614081 11.013125 4.057594 -0.557593 -7.477700 -1.431110 0.267708 -4.995489 0.496074 4.806176 11.070484 0.000000 0.000000 0.000000 -6.203063 0.747753 -8.578982 -2.940635 -0.015229 -4.616894 -4.138567 -13.222424 13.068388 0.000000 0.000000 0.000000 5.396408 0.443331 -7.607004 -4.688265 1.972657 -7.613199 -6.939909 3.358503 6.119097 -0.763946 1.687305 -12.719036 0.000000 0.000000 0.000000 -14.413981 3.477277 -3.556162 -55.126551 -8.946649 -2.526362 -2.654252 -11.453021 0.647457 0.000000 0.000000 0.000000 10.892401 -11.142330 -5.694305 68.406224 0.936485 -5.745496 4.561645 21.632071 1.673962 0.000000 0.000000 0.000000 
-0.001258 0.944078 0.000693 2.830460 -2.342000 10.935675 3.907934 -0.565937 -7.514990 -1.456913 0.262369 -4.728317 0.480135 4.757039 10.875867 0.000000 0.000000 0.000000 -6.320107 0.735800 -8.484414 -3.081606 -0.012488 -4.715128 -4.279821 -13.454110 13.161842 0.000000 0.000000 0.000000 5.430258 0.439083 -7.571933 -4.770361 2.005572 -7.747739 -7.191810 3.307988 6.223285 -1.059621 1.898484 -12.845711 0.000000 0.000000 0.000000 -14.409307 3.125895 -3.410516 -54.974142 -9.151426 -2.435091 -2.612869 -11.294101 0.632836 0.000000 0.000000 0.000000 10.935776 -11.061913 -5.648714 68.541765 0.772559 -5.844845 4.354883 22.147481 1.693057 0.000000 0.000000 0.000000 
